<svg version="1.1" viewBox="0.0 0.0 960.0 720.0" fill="none" stroke="none" stroke-linecap="square" stroke-miterlimit="10" xmlns:xlink="http://www.w3.org/1999/xlink" xmlns="http://www.w3.org/2000/svg"><clipPath id="p.0"><path d="m0 0l960.0 0l0 720.0l-960.0 0l0 -720.0z" clip-rule="nonzero"/></clipPath><g clip-path="url(#p.0)"><path fill="#000000" fill-opacity="0.0" d="m0 0l960.0 0l0 720.0l-960.0 0z" fill-rule="evenodd"/><path fill="#000000" fill-opacity="0.0" d="m12.927158 707.1181c2.6242342 -14.075684 -25.527122 -74.67279 15.745407 -84.45404c41.272526 -9.781311 173.91733 27.436523 231.88976 25.766357c57.972443 -1.670166 102.346466 -14.316223 115.944885 -35.787354c13.598419 -21.47113 -14.314514 -51.767273 -34.35431 -93.03937c-20.039825 -41.272125 -122.14699 -135.74588 -85.88452 -154.5932c36.26245 -18.84732 255.50699 71.807526 303.4593 41.509186c47.95233 -30.29834 -50.099274 -172.007 -15.745361 -223.29921c34.35388 -51.29222 184.89062 -70.378395 221.86871 -84.45407" fill-rule="evenodd"/><path stroke="#000000" stroke-width="4.0" stroke-linejoin="round" stroke-linecap="butt" stroke-dasharray="16.0,12.0" d="m12.927158 707.1181c2.6242342 -14.075684 -25.527122 -74.67279 15.745407 -84.45404c41.272526 -9.781311 173.91733 27.436523 231.88976 25.766357c57.972443 -1.670166 102.346466 -14.316223 115.944885 -35.787354c13.598419 -21.47113 -14.314514 -51.767273 -34.35431 -93.03937c-20.039825 -41.272125 -122.14699 -135.74588 -85.88452 -154.5932c36.26245 -18.84732 255.50699 71.807526 303.4593 41.509186c47.95233 -30.29834 -50.099274 -172.007 -15.745361 -223.29921c34.35388 -51.29222 184.89062 -70.378395 221.86871 -84.45407" fill-rule="evenodd"/></g></svg>